<svg width="200" height="149.733" xmlns="http://www.w3.org/2000/svg"><path d="M95.529 64.217A5229.83 5229.83 0 0 1 79.653 42.05a5.363 5.363 0 0 0-.44-.82 14.27 14.27 0 0 0-1.76-2.224l-1.19-1.641v-.071a4.412 4.412 0 0 0-.654-.94l-.083-.107a3.14 3.14 0 0 0-.559-1.058 5.791 5.791 0 0 0-.523-.797l-1.903-2.58.107-.44A2.26 2.26 0 0 0 71.9 30.3h-.392l-.476-.654.095-.333a.678.678 0 0 0-.083-.262 5.423 5.423 0 0 0-.321-.463.606.606 0 0 0-.369-.238h-.297l-.987-1.415v-.547a7.599 7.599 0 0 0-.595-.88l-.594-.203-.773-1.07c.095-.178.226-.464.119-.642l-.547-.951a.904.904 0 0 0-.821-.393h-.19l-2.997-4.27-.095-.403a.809.809 0 0 0-.286-.429l-.642-.475-1.498-2.236a.618.618 0 0 0-.38-.238.702.702 0 0 0-.429.107l-1.403 1.035a.583.583 0 0 0-.107.797l.892 1.272.13.642a.63.63 0 0 0 .381.464l.619.274 2.675 3.638v.393a.5.5 0 0 0 0 .297 3.032 3.032 0 0 0 .416.666l.155.131.666.345 1.272 1.724.298.523v.072l.452.487.856 1.19v.285a.714.714 0 0 0 .13.464 6.636 6.636 0 0 0 .44.57.856.856 0 0 0 .405.227h.226l.57.725-.082.285a2.878 2.878 0 0 0 .451.69h.345l.857 1.19v.594a2.307 2.307 0 0 0 .701.809h.44l.845 1.189v.214a1.808 1.808 0 0 0 .332.63 2.378 2.378 0 0 0 .702.583l.69.94a1.296 1.296 0 0 0 .523.82h.13l3.117 4.15 2.45 3.247a4.293 4.293 0 0 0 1.284 1.712c2.164 2.878 12.867 17.065 13.2 17.47a.88.88 0 0 0 .666.392.547.547 0 0 0 .416-.178.844.844 0 0 0 0-1.19M200 96.004h-8.538c-2.379 0-4.757.155-5.566 2.141-.083.202-.214.69-.214.69l2.521 2.378 1.19-2.759h4.923l-1.19 1.26v7.576a13.343 13.343 0 0 1-4.53.797 9.87 9.87 0 0 1-9.419-10.251c0-5.054 3.294-10.43 9.419-10.43a10.144 10.144 0 0 1 6.397 2.165 16.875 16.875 0 0 1 2.2 2.7l1.95-6.434-2.925 1.213a20.216 20.216 0 0 0-7.67-1.927c-8.443 0-14.342 5.304-14.342 12.903a13.295 13.295 0 0 0 3.568 9.228c2.866 3.08 6.98 3.497 10.62 3.497a21.976 21.976 0 0 0 9.216-2.153v-7.23l2.176-2.545-1.986-.333zM30.622 85.706l1.486 1.582-4.756 14.056-5.435-14.056 1.498-1.582h-8.074l1.486 1.582-4.507 15.138-2.64-6.1 1.95.808-3.567-6.85 2.235.928-2.58-5.47H0l4.519 7.8-2.45-1.034 5.673 8.776-2.379-.987 6.339 11.892 1.189-1.7 5.863-18.92 7.718 20.216 1.189-1.712 7.61-22.785 1.5-1.582zm101.38 10.287c0-2.878-.964-7.837-5.947-7.837h-3.734v15.126l-1.189 1.19h4.52c4.613 0 6.326-4.603 6.326-8.503m4.935 0c0 5.874-3.568 10.917-9.133 10.917h-11.333l1.284-1.523V87.252l-1.486-1.546h11c7.408 0 9.632 5.34 9.632 10.334m-52.61 5.042L80.509 90.76l-4.543 10.322Zm9.062 9.121h-7.79l1.487-1.593-1.403-4.043 1.094-1.059H74.92l-2.236 5.078 1.487 1.594H67.88l1.486-1.594 2.497-5.649-1.962-1.855h2.795l6.112-13.794-1.439-1.582h8.182l-1.463 1.582 7.754 21.298zm77.773-22.892 1.487-1.581h-5.946l1.474 1.581v16.435l-12.82-18.04h-5.945l1.463 1.582v21.298l-1.475 1.594h5.85l-1.474-1.606V91.57l13.248 18.61h5.625l-1.487-1.593zm-67.035 9.8c2.248 0 4.055-2.462 4.055-4.757a3.984 3.984 0 0 0-4.02-4.175h-3.4v8.943zm27.934 12.141s-.915 7.005-9.585 7.005a16.161 16.161 0 0 1-12.879-5.78 31.942 31.942 0 0 1-5.625-10.929h-3.21v9.038l1.474 1.594H94.65l1.498-1.606V87.288l-1.475-1.582h10.977a7.337 7.337 0 0 1 3.127.725 6.422 6.422 0 0 1 3.913 5.756c0 4.959-4.888 6.79-4.888 6.79l1.808.619a36.057 36.057 0 0 0 4.221 9.085 11.048 11.048 0 0 0 9.633 5.233c3.663 0 5.506-1.713 5.946-2.616l-1.01-1.035-2.926 1.677 1.38-2.688zM66.43 88.976v-3.27H49.41l-.856 5.863 3.211-3.366h9.93L48.757 106.78v3.4h17.72l.618-5.374-2.878 2.937H53.645l8.027-11.714 3.449-2.295-1.19-.713 4.496-2.866zm80.437-3.27h-7.515l1.462 1.558v21.322l-1.486 1.594h7.54l-1.487-1.594V87.288Zm-101.153 0h-7.504l1.463 1.558v21.322l-1.487 1.594h7.528l-1.475-1.594V87.288Zm15.757 32.667 1.427 1.63-6.16 17.838-6.1-17.922 1.688-1.546h-9.098l1.463 1.63-4.9 17.29-6.492-17.29 1.332-1.63h-8.943l1.593 1.63 11.238 29.73 1.606-1.713 6.338-23.154 8.467 24.795 1.51-1.629c2.082-5.946 9.645-28.077 9.645-28.077l1.82-1.63zM147.21 16.65l-3.484-2.497a.523.523 0 0 0-.654 0 .773.773 0 0 0-.25.713l.071.464a1.45 1.45 0 0 1-.237 1.058l-8.277 12.237v.083l-.214.726-.167.19-.856.393a.75.75 0 0 0-.44.642.737.737 0 0 0 .095.416l.107.166c-7.23 9.895-23.784 33.096-24.117 33.44-.333.346-.654.988-.178 1.273.475.286 1.058-.523 1.058-.523 5.946-7.48 21.323-28.244 24.866-33.024l.19.06a.75.75 0 0 0 .429 0 .725.725 0 0 0 .464-.619l.107-.951a.285.285 0 0 1 .118-.214l.619-.429h.071l8.848-11.82a1.463 1.463 0 0 1 .94-.56l.451-.07a.82.82 0 0 0 .607-.476.535.535 0 0 0-.179-.63m-41.455 47.58.13.083a.595.595 0 0 0 .464 0 1.332 1.332 0 0 0 .619-.88c.202-.678.487-1.641.785-2.676.25-.82.499-1.677.737-2.485.654-2.177 2.58-7.385 3.567-10.192.381-1.01.63-1.677.666-1.807l.107-.393a9.18 9.18 0 0 1 .405-1.367c0-.179.154-.44.273-.762.63-1.807 1.939-5.565 2.58-7.908a4.888 4.888 0 0 1 .239-.701 4.46 4.46 0 0 0 .261-.761 5.72 5.72 0 0 1 .19-.643 6.993 6.993 0 0 0 .274-.987 2.462 2.462 0 0 1 .155-.428c.13-.297.32-.749.594-1.534.274-.785 1.118-3.27 1.641-4.84.274-.832.476-1.439.512-1.522.035-.083.119-.286.25-.595.225-.5.547-1.189.963-2.224.713-1.712 2.045-5.137 2.997-7.634l.963-2.45a33.5 33.5 0 0 0 1.355-3.734 2.676 2.676 0 0 0-1.462-3.08c-.619-.167-.761.155-.88.416v.06a29.445 29.445 0 0 0-1.285 4.412 21.976 21.976 0 0 1-.57 2.2c-1.309 3.662-1.832 5.315-2.379 7.242-.226.725-.464 1.498-.773 2.378-.464 1.451-1.38 4.186-2.378 7.135-1.19 3.71-2.533 7.564-2.985 9.026-.452 1.463-2.795 8.432-4.353 13.367a550.494 550.494 0 0 0-1.902 5.792c-.298.95-1.522 5.042-1.796 6.053-.178.701-.285 1.189.095 1.438M43.216 35.593a3.449 3.449 0 0 1 1.629.761c.464.404 1.558.809 1.998 1.19a7.587 7.587 0 0 0 1.807 1.07 2.117 2.117 0 0 1 1.118.725c.214.31.94.38.94.38a6.505 6.505 0 0 0 .63.56 14.27 14.27 0 0 1 2.176 1.343c.488.488 1.998 1.19 3.092 2.105a14.592 14.592 0 0 0 2.319 1.617 16.649 16.649 0 0 1 2.07 1.51c.546.464 1.414.964 1.95 1.452a28.065 28.065 0 0 0 2.544 1.64c.892.56 2.01 1.51 2.724 1.95.713.44 2.271 1.428 2.854 1.88.582.452 2.533 1.903 3.567 2.51a27.352 27.352 0 0 1 2.926 2.116c.868.725 3.46 2.378 5.791 3.924 2.331 1.546 7.361 5.09 8.04 5.542.677.452 1.034.13 1.093 0 .06-.13.143-.393-.368-.88-.512-.488-3.176-2.379-4.317-3.187-1.142-.809-4.365-3.33-5.209-3.948l-7.837-5.625c-1.284-.94-3.044-2.165-3.984-2.83a78.128 78.128 0 0 0-3.282-2.224c-1.094-.69-1.784-1.51-3.318-2.51-1.534-.999-2.164-1.795-3.567-2.544a12.13 12.13 0 0 1-2.569-1.939 22.19 22.19 0 0 1-2.378-1.665 4.757 4.757 0 0 0-1.737-1.082c-.119-.333-1.189-.963-1.546-1.19-.356-.225-2.687-2.663-3.757-3.507a19.586 19.586 0 0 0-2.379-1.451c-.416-.286-.678-.892-1.796-2.034a2.26 2.26 0 0 0-3.21.38 2.283 2.283 0 0 0-.262 2.498c.345 1 1.558 1.285 2.212 1.44m113.688-1.69-4.84 4.02a1.01 1.01 0 0 0-.547.19 1.308 1.308 0 0 0-.298.488c-1.534 1.106-35.129 25.96-39.243 29.052a.57.57 0 0 0-.143.75.559.559 0 0 0 .809.166c4.507-3.14 37.876-26.924 39.85-28.315a.856.856 0 0 0 .951-.512l1.582-.844c.547-.285 4.388-2.687 5.16-3.068 1.844-.63 3.568-1.855 2.546-3.972a2.378 2.378 0 0 0-2.747-1.106 2.224 2.224 0 0 0-1.487 2.379 2.462 2.462 0 0 1-1.07.07l-.143.096v.19a.761.761 0 0 1-.285.476m3.33 22.238c-1.428.464-2.914.94-4.377 1.368a4.876 4.876 0 0 1-1.51.095h-.13a.987.987 0 0 1-.429-.155l-.262-.119-.214-.071-.297.476.155.154h.071l.095.107.012.238-.178.083-.476.131c-.214 0-.44.119-.666.202l-1.19.488-1.188.464c-.429.154-.892.309-1.451.475l-4.317 1.19c-.19 0-.393.095-.595.142l-.404.095-.606.167-1.118.273a20.145 20.145 0 0 0-2.117.63c-.416.143-.833.286-1.296.417a24.212 24.212 0 0 0-2.724 1.034l-.475.203-2.462 1.07-1.558.69a22.714 22.714 0 0 1-2.2.749c-.583.178-1.189.357-1.748.57-1.082.417-2.224.762-3.365 1.107-.607.178-1.19.452-1.784.606l-1.19.38c-.796.227-1.617.464-2.378.69l-.701.25a11.13 11.13 0 0 1-1.095.321l-1.189.333c-.452.107-.238 0-.606.143-.369.143-.654.214-.607.547 0 .143.167.273.642.273a13.723 13.723 0 0 0 1.38-.142c1.26-.226 2.378-.56 3.758-.833.547-.119 1.308-.559 1.831-.666l1.51-.32 1.416-.346c.713-.154 1.284-.511 1.902-.666a10.06 10.06 0 0 0 2.76-.808 11.488 11.488 0 0 1 2.461-.809l.654-.262.31-.13 1.01-.44a10.596 10.596 0 0 1 2.117-.797c.333-.083.678-.19.999-.297a6.648 6.648 0 0 1 1.688-.38 4.757 4.757 0 0 0 .595-.096h.107a20.216 20.216 0 0 0 2.152-.57c.655-.191 1.332-.405 2.07-.548l.868-.178c.892-.167 1.82-.357 2.723-.571a22.193 22.193 0 0 0 1.522-.428l.82-.25.5-.13a6.85 6.85 0 0 0 .809-.227 47.685 47.685 0 0 0 2.557-1.022h.095a1.403 1.403 0 0 0 .76-.524c.167-.309.393-.333.81-.368l1.248-.107c1.19-.096 2.379-.19 3.568-.345a17.184 17.184 0 0 0 2.723-.571c.678-.202 1.368-.44 2.034-.666a44.302 44.302 0 0 1 2.533-.785c1.117-.31 3.567-.832 4.626-1.082l2.01-.464c.404-.095.975-.404.927-.797a.856.856 0 0 0-.321-.618 1.106 1.106 0 0 1-.428-.999.761.761 0 0 0-.56-.666h-.154a3.365 3.365 0 0 0-1.38 0c-.546.155-2.378.535-2.925.642a15.531 15.531 0 0 0-2.556.654c-1.035.405-2.13.738-3.188 1.07l-1.189.381zm-129.54 1.558a2.295 2.295 0 0 0 .297.369 6.85 6.85 0 0 0 1.356.891 2.747 2.747 0 0 0 .963.393 4.876 4.876 0 0 1 .618.214 4.65 4.65 0 0 0 1.011.321h.167a1.344 1.344 0 0 0 1.058-.143 1.308 1.308 0 0 0 .38-.618c0-.143-.558.119-1.189-.464-.118-.119-.76-.678-.773-.809a2.236 2.236 0 0 1 .524-.963 2.842 2.842 0 0 1 .618.179 4.257 4.257 0 0 1 1.63.94 4.043 4.043 0 0 0 2.627 1.057 16.22 16.22 0 0 1 9.074 2.379 1.19 1.19 0 0 0 1.19.452h.059a3.092 3.092 0 0 1 2.378-.56l10.382 2.986a17.446 17.446 0 0 0 2.652.76l23.487 6.827h.178a.63.63 0 0 0 .57-.357.642.642 0 0 0 0-.535.595.595 0 0 0-.392-.345c-1.462-.476-6.552-2.224-12.89-4.27a18.35 18.35 0 0 0-2.38-.962 17.006 17.006 0 0 0-2.187-.524c-12.344-3.948-19.242-6.207-20.003-6.528-.76-.321-.654-.44-.654-.452 0-.012.262-.345.38-.428.12-.084.298-.214.286-.393v-.178l-.142-.072a11.726 11.726 0 0 0-3.27-.178c-2.284 0-10.109-.987-11.548-2.997a6.767 6.767 0 0 0-1.058-1.189 5.351 5.351 0 0 1-.809-.832c-.892-1.19-2.604-1.57-3.116.214-.44 1.38-2.164 1.415-2.497 2.782-.155.619.428.976.69 1.499.261.523 0 1.082.345 1.51M77.917 7.766a6.457 6.457 0 0 1 .701.333l.464.237v.143a2.474 2.474 0 0 0 .238.726 9.597 9.597 0 0 1 .357 1.022v.131l.665 1.19.131.416.084.059h.07a.452.452 0 0 0-.106.297 1.498 1.498 0 0 0 .511.904 14.603 14.603 0 0 1 .63 1.903 2.378 2.378 0 0 0 .12 1.118 8.717 8.717 0 0 1 .225.88 10.406 10.406 0 0 0 .357 1.32l.25.808a4.186 4.186 0 0 1 .178.738c0 .095 0 .487.143 1.795a.523.523 0 0 0 .178.357l.464.44a3.805 3.805 0 0 1 .31.333 1.427 1.427 0 0 0 .332.31l1.273 3.793c.76 2.509 1.665 5.41 2.58 8.217.286.868.56 1.736.845 2.605.94 2.949 1.914 6.005 3.14 8.835l5.672 16.97a.678.678 0 0 0 .844.428l.13-.071a.654.654 0 0 0 .262-.737L94.21 47.259a12.82 12.82 0 0 0-.63-2.176l-.108-.25-.083-.297a6.755 6.755 0 0 0-.357-2.117 43.726 43.726 0 0 0-1.034-2.45l-.369-1.189a78.93 78.93 0 0 0-1.89-6.564 23.177 23.177 0 0 0-.595-1.641l-2.57-8.503a.5.5 0 0 0 .31-.25.511.511 0 0 0 0-.44l-.678-2.164a.464.464 0 0 0-.154-.238l-.405-.369-.023-.226v-.475l-1-2.379.143-.428a.595.595 0 0 0 0-.38l-.119-.393a.57.57 0 0 0-.214-.285l-.392-.357-.286-.75-.51-1.76-1.083-2.925c.297-1.07.25-1.189.226-1.32a1.594 1.594 0 0 1 0-.404 3.663 3.663 0 0 0 0-.5v-.88a.547.547 0 0 0-.333-.523l-.5-.143-.523-.202-.428-.107a.511.511 0 0 0-.297 0l-.523.167c-.488 0-.75.166-.762.404a1.772 1.772 0 0 1-.273.392l-.547.179c-.13.071-.535.32-.583.654a5.268 5.268 0 0 0 0 .975.63.63 0 0 0 .345.773m22.12 5.018c0 .44.475.714.748.845l.12 5.316-.571.547a.892.892 0 0 0-.286.618v.488a3.924 3.924 0 0 0 .951 2.295l.072.083v.928a24.973 24.973 0 0 0 .166 3.983l.107 2.438a2.866 2.866 0 0 0-.666 2.379 1.641 1.641 0 0 0 .702.915v.155a15.876 15.876 0 0 0 0 4.043v3.568a2.688 2.688 0 0 0-.618 2.045 2.022 2.022 0 0 0 .475 1.403c0 .512.131 1.023.214 1.51v.31l-.095 6.91a3.568 3.568 0 0 0 .155 3.567c0 1.296.166 6.065.166 6.112 0 .048.096.583.5.583a.63.63 0 0 0 .654-.666c.095-1.7.285-5.03.238-6.03a3.496 3.496 0 0 0 .154-3.567v-.94a11.987 11.987 0 0 0 0-1.58v-1.868a13.711 13.711 0 0 0 0-1.403v-1.51q.072-.643.107-1.285a2.07 2.07 0 0 0 .583-1.32 2.783 2.783 0 0 0-.559-2.295v-.404a5.601 5.601 0 0 0 0-1.094l-.119-6.256a1.76 1.76 0 0 0 .654-1.046 2.925 2.925 0 0 0-.701-2.283v-7.278a4.555 4.555 0 0 0 1.022-2.866.844.844 0 0 0-.285-.619l-.57-.547a25.056 25.056 0 0 0 0-2.52l.07-2.736c.274-.13.726-.416.762-.856 0-.19.095-.809.226-1.677a1.38 1.38 0 0 0-1-1.558l-.178-3.377a2.022 2.022 0 0 0 .761-1.808 1.772 1.772 0 0 0-1.046-1.403l.916-1.522V1.39c0-.107 0-1.058-.595-1.189A5.577 5.577 0 0 0 102.034 0h-.167a2.735 2.735 0 0 0-.785.107h-.214c-.618.167-.594 1.118-.594 1.19v.07l.903 1.523a1.796 1.796 0 0 0-1.046 1.403 2.045 2.045 0 0 0 .773 1.808l-.19 3.377a1.356 1.356 0 0 0-.904 1.51c.13.892.214 1.487.226 1.677m1.879 57.38a6.017 6.017 0 0 1 5.946 5.303 18.112 18.112 0 0 1 .142 2.152h70.817v-.737l-2.818-2.045h-65.3a8.967 8.967 0 0 0-8.787-7.528 8.967 8.967 0 0 0-8.753 7.528H27.863l-2.89 2.033v.738h70.83a19.74 19.74 0 0 1 .13-2.153 6.017 6.017 0 0 1 5.946-5.304zm70.388 63.146c0-6.184-2.89-12.368-8.657-12.368h-7.623v23.784l-1.189 1.19h6.493c5.827 0 10.953-5.233 10.953-12.678m6.017-.13a14.806 14.806 0 0 1-14.187 15.424h-15.34l1.521-1.63V129.48l-1.831-3.805 1.926.797-2.842-5.482 3.009.237-2.485-2.854h17.231c7.659 0 13.022 5.946 13.022 14.735m-33.797 12.807h-10.858l1.19-1.189v-24.724l1.534-1.629h-8.8l1.498 1.63v26.792l-1.51 1.618h19.146l.642-5.946zm-29.73-19.729a5.161 5.161 0 0 0-4.912-5.256h-3.21v11.19h3.246c3.21 0 4.876-3.056 4.876-5.946m2.045 22.227 1.51-1.63-8.49-12.153h-3.188v12.165l1.546 1.63h-8.776l1.522-1.63v-26.78l-1.498-1.63h12.653c4.59 0 9.359 3.687 8.324 9.336h1.534s-2.663 3.02-2.735 3.127l1.023.761-5.791 2.616 1.82.643 8.407 11.987 1.498 1.629zm-21.275-5.863a15.638 15.638 0 0 1-13.378 6.743c-8.836 0-16.4-5.946-16.4-15.745 0-8.55 6.494-15.638 16.4-15.579a19.776 19.776 0 0 1 10.572 3.092c-2.973-1.106-13.153-3.08-18.183 3.568a15.103 15.103 0 0 0-2.76 8.871c0 7.896 5.126 13.081 10.347 13.081 4.4 0 8.443-3.199 9.62-9.287a12.308 12.308 0 0 0-2.378-9.704c-1.486-1.808-4.97-3.568-8.003-1.035a3.354 3.354 0 0 0 1.938 6.172c-3.853.773-5.47-2.212-5.018-4.555.452-2.342 3.116-5.874 3.116-5.874l8.383.107 6.696 6.255a28.362 28.362 0 0 1 .951 3.056 14.758 14.758 0 0 1-1.915 10.703" style="fill:#000;stroke-width:1.1892"/></svg>